<svg id="AW_logo" xmlns="http://www.w3.org/2000/svg" width="551.5" height="198.7" viewBox="0 0 551.5 198.7"><style>.st0{fill:#f60}</style><path class="st0" d="M489.6 56.3c1.4 0 2.6 1.2 2.6 2.6v16.7c0 1.4-1.2 2.6-2.6 2.6h-19.1c-2.5 0-4.9-.4-4.9-.4v65.9c0 1.4-1.2 2.6-2.6 2.6h-20.7c-1.4 0-2.6-1.2-2.6-2.6V77.9s-1.8.3-3.8.4h-20.2c-1.4 0-2.6-1.2-2.6-2.6V58.9c0-1.4 1.2-2.6 2.6-2.6h73.9zm-425 .1c-1.4 0-2.6 1.2-2.6 2.6v16.7c0 1.4 1.2 2.6 2.6 2.6h20.2c2 0 3.8-.4 3.8-.4v65.9c0 1.4 1.2 2.6 2.6 2.6H112c1.4 0 2.6-1.2 2.6-2.6V77.9s2.5.4 4.9.4h19.1c1.4 0 2.6-1.2 2.6-2.6V59c0-1.4-1.2-2.6-2.6-2.6h-74zM452.6 0c-38.1 0-71.3 21.8-87.8 53.6C348.4 21.8 315.2 0 277.1 0s-71.3 21.8-87.8 53.6C172.9 21.8 139.7 0 101.6 0 47.1 0 2.7 44.6 2.7 99.3c0 54.8 44.4 99.3 98.9 99.3 38.1 0 71.3-21.8 87.8-53.6 16.5 31.8 49.6 53.6 87.8 53.6 38.1 0 71.3-21.8 87.8-53.6 16.5 31.8 49.6 53.6 87.8 53.6 54.5 0 98.9-44.6 98.9-99.3C551.5 44.6 507.2 0 452.6 0m-351 176.3c-42.2 0-76.6-34.5-76.6-77 0-42.4 34.4-76.9 76.6-76.9 42.2 0 76.6 34.5 76.6 76.9 0 42.5-34.4 77-76.6 77m175.5 0c-42.2 0-76.6-34.5-76.6-77 0-42.4 34.4-76.9 76.6-76.9 42.2 0 76.6 34.5 76.6 76.9 0 42.5-34.3 77-76.6 77m175.5 0c-42.2 0-76.6-34.5-76.6-77 0-42.4 34.4-76.9 76.6-76.9 42.2 0 76.6 34.5 76.6 76.9 0 42.5-34.3 77-76.6 77M315.4 54.7c1.6 0 2.7 1.2 2.7 2.7v83.9c0 1.5-1.2 2.6-2.6 2.6h-17.3c-1 0-2.3-.7-2.9-1.5 0 0-31.4-42.8-32.2-43.9-1.1-1.4-2.1-4.1-2.1-4.1v46.8c0 1.5-1.2 2.6-2.6 2.6h-19.5c-1.4 0-2.6-1.2-2.6-2.6V57.4c0-1.4 1.2-2.6 2.6-2.6h17.3c1 0 2.3.7 2.9 1.5 0 0 30.8 42 32.2 43.9 1.1 1.4 2.1 4.1 2.1 4.1V57.4c0-1.4 1.2-2.6 2.6-2.6-.1 0 18.1-.1 19.4-.1"/></svg>